<svg xmlns="http://www.w3.org/2000/svg" xmlns:xlink="http://www.w3.org/1999/xlink" width="28" height="28" viewBox="0 0 28 28"><defs><style>.a,.c{fill:#0087a8;}.a{stroke:#707070;}.b{clip-path:url(#a);}</style><clipPath id="a"><rect class="a" width="28" height="28" transform="translate(-0.686 -0.263)"/></clipPath></defs><g class="b" transform="translate(0.686 0.262)"><g transform="translate(2.197 0)"><path class="c" d="M17.005,4.047l.3-.449.295-.443.663-.995a.266.266,0,1,0-.443-.295l-.71,1.066-.3.448-.3.454a8.9,8.9,0,0,0-6.327,0l-.3-.454-.3-.448L8.869,1.865a.266.266,0,1,0-.443.295l.663.995.3.443.3.449A6.043,6.043,0,0,0,5.9,9.368H20.789A6.043,6.043,0,0,0,17.005,4.047ZM10.154,7.241a.8.8,0,1,1,.8-.8A.8.8,0,0,1,10.154,7.241Zm6.38,0a.8.8,0,1,1,.8-.8A.8.8,0,0,1,16.535,7.241Z" transform="translate(-1.646 -1.747)"/><path class="c" d="M6.015,8.069H5.9v11.7a1.685,1.685,0,0,0,1.683,1.684H8.8a1.593,1.593,0,0,0-.064.443v3.369a1.6,1.6,0,0,0,3.191,0V21.895a1.638,1.638,0,0,0-.063-.443h2.962a1.593,1.593,0,0,0-.063.443v3.369a1.6,1.6,0,0,0,3.19,0V21.895a1.6,1.6,0,0,0-.063-.443h1.215a1.686,1.686,0,0,0,1.684-1.684V8.069H6.015Z" transform="translate(-1.646 0.617)"/><path class="c" d="M4.4,8.069a1.6,1.6,0,0,0-1.6,1.6v6.823a1.6,1.6,0,1,0,3.19,0V9.664A1.6,1.6,0,0,0,4.4,8.069Z" transform="translate(-2.804 0.617)"/><path class="c" d="M19.108,8.069a1.6,1.6,0,0,0-1.6,1.6v6.823a1.595,1.595,0,1,0,3.189,0V9.664A1.594,1.594,0,0,0,19.108,8.069Z" transform="translate(2.694 0.617)"/></g></g></svg>