<svg xmlns="http://www.w3.org/2000/svg" xmlns:xlink="http://www.w3.org/1999/xlink" width="28" height="28" viewBox="0 0 28 28"><defs><style>.a,.c{fill:#0087a8;}.a{stroke:#707070;}.b{clip-path:url(#a);}</style><clipPath id="a"><rect class="a" width="28" height="28" transform="translate(0.389)"/></clipPath></defs><g class="b" transform="translate(-0.389)"><path class="c" d="M19.527,6.958A6.224,6.224,0,0,1,23.634,4.84a6.19,6.19,0,0,1-1.453,4.472,5.161,5.161,0,0,1-4.139,1.98A5.911,5.911,0,0,1,19.527,6.958ZM27.5,29.365c-1.16,1.7-2.37,3.4-4.269,3.441-1.867.032-2.467-1.112-4.6-1.112s-2.808,1.079-4.569,1.144c-1.834.073-3.23-1.842-4.4-3.546-2.394-3.473-4.228-9.82-1.769-14.1a6.811,6.811,0,0,1,5.77-3.506c1.8-.032,3.506,1.217,4.6,1.217s3.165-1.5,5.34-1.282a6.5,6.5,0,0,1,5.1,2.775,6.354,6.354,0,0,0-3.011,5.332,6.184,6.184,0,0,0,3.741,5.665A15.508,15.508,0,0,1,27.5,29.365Z" transform="translate(-4.239 -4.84)"/></g></svg>