<svg xmlns="http://www.w3.org/2000/svg" width="34.484" height="26.351" viewBox="0 0 34.484 26.351"><defs><style>.a{fill:#fff;}</style></defs><g transform="translate(-5 -15.613)"><path class="a" d="M9.051,38.616A2.352,2.352,0,1,0,6.7,36.264,2.355,2.355,0,0,0,9.051,38.616Zm0-3.88a1.528,1.528,0,1,1-1.528,1.528A1.53,1.53,0,0,1,9.051,34.736Zm2.059-10.678H6.992v.824h4.119Zm1.58-7.434H5.412A.412.412,0,0,0,5,17.037V41.552a.412.412,0,0,0,.412.412h7.278a.412.412,0,0,0,.412-.412V17.037A.412.412,0,0,0,12.691,16.625ZM12.279,41.14H5.824V17.449h6.455ZM11.111,20.556H6.992v.824h4.119Zm0,1.751H6.992v.824h4.119ZM39.459,38.921,31.074,15.885a.411.411,0,0,0-.528-.246l-6.84,2.49a.411.411,0,0,0-.246.528l8.384,23.037a.413.413,0,0,0,.528.246l6.841-2.49A.413.413,0,0,0,39.459,38.921Zm-6.981,2.1-8.1-22.263,6.066-2.208,8.1,22.262ZM28.015,25.347l3.871-1.409-.281-.774-3.871,1.409Zm-1.479-4.065.281.774,3.871-1.409-.281-.774Zm.881,2.419,3.87-1.408-.281-.774-3.871,1.409Zm4.217,12.441a2.352,2.352,0,1,0,.079-1.8A2.327,2.327,0,0,0,31.634,36.142Zm.825-1.45a1.529,1.529,0,1,1-.051,1.168A1.522,1.522,0,0,1,32.458,34.692ZM21.824,16.625H14.545a.412.412,0,0,0-.412.412V41.551a.412.412,0,0,0,.412.412h7.279a.411.411,0,0,0,.412-.412V17.037A.412.412,0,0,0,21.824,16.625ZM21.412,41.14H14.957V17.449h6.455V41.14Zm-3.227-2.523a2.352,2.352,0,1,0-2.352-2.352A2.355,2.355,0,0,0,18.185,38.616Zm0-3.88a1.528,1.528,0,1,1-1.528,1.528A1.53,1.53,0,0,1,18.185,34.736Zm2.059-14.18H16.125v.824h4.119Zm0,1.751H16.125v.824h4.119Zm0,1.751H16.125v.824h4.119Z" transform="translate(0 0)"/></g></svg>