<?xml version="1.0" encoding="utf-8"?>
<!-- Generator: Adobe Illustrator 24.2.3, SVG Export Plug-In . SVG Version: 6.00 Build 0)  -->
<svg version="1.1" id="Layer_1" xmlns="http://www.w3.org/2000/svg" xmlns:xlink="http://www.w3.org/1999/xlink" x="0px" y="0px"
	 viewBox="0 0 110 137.5" style="enable-background:new 0 0 110 137.5;" xml:space="preserve">
<g>
	<path  fill="#fff" d="M67,91c0,2.2-1.8,4-4,4H11c-2.2,0-4-1.8-4-4V19c0-2.2,1.8-4,4-4h52c2.2,0,4,1.8,4,4v14.3h4V19c0-4.4-3.6-8-8-8H11
		c-4.4,0-8,3.6-8,8v72c0,4.4,3.6,8,8,8h52c4.4,0,8-3.6,8-8V76.8h-4V91z"/>
	<path  fill="#fff" d="M64,25c0-1.1-0.9-2-2-2H12c-1.1,0-2,0.9-2,2s0.9,2,2,2h50C63.1,27,64,26.1,64,25z"/>
	<path  fill="#fff" d="M12,37h41v-4H12c-1.1,0-2,0.9-2,2S10.9,37,12,37z"/>
	<path  fill="#fff" d="M12,47h30v-4H12c-1.1,0-2,0.9-2,2S10.9,47,12,47z"/>
	<path  fill="#fff" d="M12,57h27v-4H12c-1.1,0-2,0.9-2,2S10.9,57,12,57z"/>
	<path  fill="#fff" d="M12,67h30v-4H12c-1.1,0-2,0.9-2,2S10.9,67,12,67z"/>
	<path  fill="#fff" d="M12,77h41v-4H12c-1.1,0-2,0.9-2,2S10.9,77,12,77z"/>
	<path  fill="#fff" d="M12,87h50c1.1,0,2-0.9,2-2s-0.9-2-2-2H12c-1.1,0-2,0.9-2,2S10.9,87,12,87z"/>
	<rect x="46" y="47" fill="#fff" width="8" height="16"/>
	<polygon  fill="#fff" points="56,63 78,76 78,34 56,47.1 	"/>
	<path  fill="#fff" d="M83.1,43.3c-0.9-0.6-2.2-0.3-2.8,0.6c-0.6,0.9-0.3,2.2,0.6,2.8c2.5,1.6,4.1,4.8,4.1,8.3s-1.6,6.7-4.1,8.3
		c-0.9,0.6-1.2,1.8-0.6,2.8c0.4,0.6,1,0.9,1.7,0.9c0.4,0,0.8-0.1,1.1-0.3C86.7,64.3,89,59.8,89,55C89,50.2,86.7,45.7,83.1,43.3z"/>
	<path  fill="#fff" d="M89.2,38.4c-0.9-0.7-2.1-0.5-2.8,0.4c-0.7,0.9-0.5,2.1,0.4,2.8C91.4,45,94,49.9,94,55c0,5.1-2.6,10-7.2,13.4
		c-0.9,0.7-1.1,1.9-0.4,2.8c0.4,0.5,1,0.8,1.6,0.8c0.4,0,0.8-0.1,1.2-0.4C94.8,67.4,98,61.4,98,55S94.8,42.6,89.2,38.4z"/>
	<path  fill="#fff" d="M98.5,33.7c-0.7-0.8-2-0.9-2.8-0.1c-0.8,0.7-0.9,2-0.1,2.8c4.9,5.4,7.5,11.9,7.5,18.7s-2.6,13.2-7.5,18.7
		c-0.7,0.8-0.7,2.1,0.1,2.8C96,76.8,96.5,77,97,77c0.5,0,1.1-0.2,1.5-0.7c5.6-6.2,8.5-13.5,8.5-21.3S104.1,39.8,98.5,33.7z"/>
</g>
</svg>
