<svg xmlns="http://www.w3.org/2000/svg" width="25.266" height="25.266" viewBox="0 0 25.266 25.266"><defs><style>.a,.b,.c{fill:#fff;}.a,.b{stroke:#ffffff;}.a{stroke-width:0.4px;}.b{stroke-width:0.7px;}</style></defs><g transform="translate(-0.012 -1.8)"><g transform="translate(0.212 2)"><path class="a" d="M23.562,5.921H19.088V2.69A.689.689,0,0,0,18.4,2H4.653A2.655,2.655,0,0,0,2,4.653V23.562a3.309,3.309,0,0,0,3.3,3.3H23.562a3.309,3.309,0,0,0,3.3-3.3V9.225A3.309,3.309,0,0,0,23.562,5.921ZM4.653,3.38H17.707v2.54H4.653a1.27,1.27,0,1,1,0-2.54ZM25.485,23.562a1.924,1.924,0,0,1-1.924,1.924H5.3A1.924,1.924,0,0,1,3.38,23.562V6.978A2.656,2.656,0,0,0,4.653,7.3H23.562a1.924,1.924,0,0,1,1.924,1.924Z" transform="translate(-2 -2)"/><path class="b" d="M327.808,135.5H322.59a.705.705,0,0,0-.69.69v4.489a.689.689,0,0,0,.69.69h5.218a.689.689,0,0,0,.69-.69V136.2A.69.69,0,0,0,327.808,135.5Zm-.7,4.489h-3.838v-3.1h3.838Z" transform="translate(-306.242 -128.965)"/><path class="a" d="M74.448,294.1H56.19a.69.69,0,1,0,0,1.38H74.448a.69.69,0,1,0,0-1.38Z" transform="translate(-52.881 -279.802)"/><path class="a" d="M56.19,228.58h9.129a.69.69,0,1,0,0-1.38H56.19a.69.69,0,0,0,0,1.38Z" transform="translate(-52.881 -216.177)"/><path class="a" d="M74.448,361H56.19a.69.69,0,1,0,0,1.38H74.448a.69.69,0,1,0,0-1.38Z" transform="translate(-52.881 -343.428)"/><path class="a" d="M74.448,427.9H56.19a.69.69,0,1,0,0,1.38H74.448a.69.69,0,1,0,0-1.38Z" transform="translate(-52.881 -407.053)"/></g><g transform="translate(2.943 8.716)"><path class="c" d="M58.359,141.44l1.2,1.577h.564V140.5H59.56v1.618L58.323,140.5H57.8v2.516h.559Z" transform="translate(-57.8 -140.44)"/><path class="c" d="M123.856,142.521h-1.293V142h1.128v-.481h-1.128V141h1.251v-.5H122v2.516h1.856Z" transform="translate(-118.52 -140.44)"/><path class="c" d="M167.7,143.016l.55-1.751.55,1.751h.417l.88-2.516h-.61l-.5,1.448-.445-1.448h-.587l-.449,1.448-.5-1.448h-.61l.88,2.516Z" transform="translate(-160.885 -140.44)"/><path class="c" d="M250.286,141.309a1.189,1.189,0,0,1-.752-.358l-.335.413a1.56,1.56,0,0,0,1.077.445c.545,0,.921-.316.921-.761.018-.435-.28-.665-.756-.779-.344-.092-.545-.151-.555-.33.018-.142.1-.243.3-.243a1.116,1.116,0,0,1,.678.248l.284-.413a1.528,1.528,0,0,0-.944-.33c-.559.032-.885.261-.9.747,0,.458.27.669.848.8.248.06.481.128.463.316C250.626,141.221,250.442,141.318,250.286,141.309Z" transform="translate(-239.89 -139.2)"/></g></g></svg>