<svg xmlns="http://www.w3.org/2000/svg" width="24.637" height="36.97" viewBox="0 0 24.637 36.97"><defs><style>.a{fill:#fff;stroke:#037c9b;stroke-width:0.5px;}</style></defs><g transform="translate(-0.114 -0.395)"><path class="a" d="M20.014,14.985a.919.919,0,0,1-1.634-.842,6.8,6.8,0,0,0,.6-1.658,7.914,7.914,0,0,0,.177-1.865,8.221,8.221,0,0,0-2.542-5.77,8.571,8.571,0,0,0-11.887,0,8.226,8.226,0,0,0-2.542,5.77,7.97,7.97,0,0,0,.177,1.865,6.8,6.8,0,0,0,.6,1.658.919.919,0,1,1-1.634.842A8.613,8.613,0,0,1,.569,12.88a9.779,9.779,0,0,1-.221-2.3,10.063,10.063,0,0,1,3.1-7.058,10.4,10.4,0,0,1,14.434,0,10.055,10.055,0,0,1,3.1,7.058,9.779,9.779,0,0,1-.22,2.3,8.659,8.659,0,0,1-.756,2.105ZM9.748,21.259a.923.923,0,0,1-.921.921h0a.924.924,0,0,1-.921-.921c0-1.722-.345-2.61-.853-3.044a1.964,1.964,0,0,0-.989-.408v9.145a8.289,8.289,0,0,0,16.577,0V22.41a.833.833,0,0,0-.509-.825,1.186,1.186,0,0,0-.823,0,.829.829,0,0,0-.509.805v1.92a.921.921,0,1,1-1.842,0v-4.7a.829.829,0,0,0-.509-.824,1.1,1.1,0,0,0-.412-.075,1.117,1.117,0,0,0-.412.074.829.829,0,0,0-.509.805v2.783a.921.921,0,1,1-1.842,0v-4.7a.83.83,0,0,0-.509-.825,1.168,1.168,0,0,0-.822,0,.831.831,0,0,0-.51.825v2.763a.921.921,0,0,1-1.842,0l0-9.634a.947.947,0,0,0-1.579-.679.83.83,0,0,0-.268.615l0,10.513Zm14.735,5.693a10.13,10.13,0,0,1-20.261,0V16.827a.921.921,0,0,1,.921-.921,4.85,4.85,0,0,1,2.763.656V10.811A2.6,2.6,0,0,1,8.82,8.736a2.783,2.783,0,0,1,4.612,2.075l0,4.277a2.954,2.954,0,0,1,2.02.062,2.557,2.557,0,0,1,1.6,1.891,2.943,2.943,0,0,1,2.08.042,2.6,2.6,0,0,1,1.667,2.53v.2a2.935,2.935,0,0,1,2.016.063,2.6,2.6,0,0,1,1.668,2.53v4.543ZM16.712,12.329a.92.92,0,0,1-1.77-.5,4.364,4.364,0,0,0,.169-1.222A4.441,4.441,0,1,0,6.4,11.827a.919.919,0,1,1-1.77.5,6.384,6.384,0,0,1-.24-1.721,6.283,6.283,0,1,1,12.566,0,6.381,6.381,0,0,1-.241,1.726Z" transform="translate(0.018 0.032)"/></g></svg>