<svg xmlns="http://www.w3.org/2000/svg" width="29.481" height="25.36" viewBox="0 0 29.481 25.36"><defs><style>.a{fill:#fff;}</style></defs><g transform="translate(0.212)"><g transform="translate(-0.212)"><path class="a" d="M15.957,22.007H2.28A2.321,2.321,0,0,1,0,19.727V2.28A2.321,2.321,0,0,1,2.28,0H23.848a2.34,2.34,0,0,1,2.367,2.28V12.45H24.725V2.28a.865.865,0,0,0-.877-.789H2.28a.786.786,0,0,0-.789.789V19.727a.786.786,0,0,0,.789.789H15.957Z"/><path class="a" d="M208.822,157A4.822,4.822,0,1,1,204,161.822,4.865,4.865,0,0,1,208.822,157Zm0,1.49a3.332,3.332,0,1,0,3.332,3.332A3.33,3.33,0,0,0,208.822,158.49Z" transform="translate(-186.114 -143.235)"/><path class="a" d="M295.593,249.645a.744.744,0,0,1,1.052-1.052l2.1,2.1a.744.744,0,0,1-1.052,1.052Z" transform="translate(-269.465 -226.586)"/><path class="a" d="M66.628,87.49a.718.718,0,0,1-.628-.7A.745.745,0,0,1,66.628,86H78.394a.748.748,0,0,1,.706.789.727.727,0,0,1-.706.7Z" transform="translate(-61.213 -79.46)"/><path class="a" d="M66.628,149.49A.745.745,0,0,1,66,148.7a.718.718,0,0,1,.628-.7H78.394a.727.727,0,0,1,.706.7.748.748,0,0,1-.706.789Z" transform="translate(-61.213 -136.024)"/></g></g></svg>